<?xml version="1.0" standalone="no"?><!DOCTYPE svg PUBLIC "-//W3C//DTD SVG 1.1//EN" "http://www.w3.org/Graphics/SVG/1.1/DTD/svg11.dtd"><svg t="1646701464044" class="icon" viewBox="0 0 1024 1024" version="1.1" xmlns="http://www.w3.org/2000/svg" p-id="23565" xmlns:xlink="http://www.w3.org/1999/xlink" width="200" height="200"><defs><style type="text/css"></style></defs><path d="M922.205091 93.090909H791.272727v-30.533818a39.237818 39.237818 0 1 0-78.568727 0V93.090909H311.296v-30.533818a39.237818 39.237818 0 1 0-78.568727 0V93.090909H101.794909C58.461091 93.090909 23.272727 128.232727 23.272727 171.659636v750.545455c0 43.380364 35.141818 78.522182 78.568728 78.522182h820.363636c43.380364 0 78.522182-35.234909 78.522182-78.568728V171.659636C1000.727273 128.279273 965.585455 93.090909 922.158545 93.090909zM101.841455 171.659636H232.727273v21.783273a39.237818 39.237818 0 1 0 78.568727 0v-21.783273h401.454545v21.783273a39.237818 39.237818 0 1 0 78.522182 0v-21.783273h130.932364v122.135273H101.841455V171.659636z m820.363636 750.545455H101.841455V372.363636h820.363636v549.841455zM267.636364 512h69.818181a34.909091 34.909091 0 1 1 0 69.818182h-69.818181a34.909091 34.909091 0 1 1 0-69.818182z m209.454545 0h69.818182a34.909091 34.909091 0 1 1 0 69.818182h-69.818182a34.909091 34.909091 0 1 1 0-69.818182z m209.454546 0h69.818181a34.909091 34.909091 0 1 1 0 69.818182h-69.818181a34.909091 34.909091 0 1 1 0-69.818182z m-418.909091 211.642182h69.818181a34.909091 34.909091 0 1 1 0 69.818182h-69.818181a34.909091 34.909091 0 1 1 0-69.818182z m209.454545 0h69.818182a34.909091 34.909091 0 1 1 0 69.818182h-69.818182a34.909091 34.909091 0 1 1 0-69.818182z" p-id="23566"></path></svg>